<svg xmlns="http://www.w3.org/2000/svg" xmlns:xlink="http://www.w3.org/1999/xlink" width="500" zoomAndPan="magnify" viewBox="0 0 375 374.999991" height="500" preserveAspectRatio="xMidYMid meet" version="1.0"><defs><g/></defs><g fill="#fb1212" fill-opacity="1"><g transform="translate(37.530325, 215.639667)"><g><path d="M 18.875 -47.015625 L 0.328125 -47.015625 L 0.328125 -57.953125 L 50.828125 -57.953125 L 50.828125 -47.015625 L 32.28125 -47.015625 L 32.28125 0 L 18.875 0 Z M 18.875 -47.015625 "/></g></g></g><g fill="#fb1212" fill-opacity="1"><g transform="translate(88.689274, 215.639667)"><g><path d="M 6.875 -57.953125 L 20.28125 -57.953125 L 20.28125 -10.921875 L 49.34375 -10.921875 L 49.34375 0 L 6.875 0 Z M 6.875 -57.953125 "/></g></g></g><g fill="#fb1212" fill-opacity="1"><g transform="translate(138.689261, 215.639667)"><g><path d="M 51.734375 -10.765625 L 51.734375 0 L 6.875 0 L 6.875 -57.953125 L 50.65625 -57.953125 L 50.65625 -47.1875 L 20.203125 -47.1875 L 20.203125 -34.609375 L 47.109375 -34.609375 L 47.109375 -24.171875 L 20.203125 -24.171875 L 20.203125 -10.765625 Z M 51.734375 -10.765625 "/></g></g></g><g fill="#fb1212" fill-opacity="1"><g transform="translate(194.235618, 215.639667)"><g><path d="M 51.734375 -10.765625 L 51.734375 0 L 6.875 0 L 6.875 -57.953125 L 50.65625 -57.953125 L 50.65625 -47.1875 L 20.203125 -47.1875 L 20.203125 -34.609375 L 47.109375 -34.609375 L 47.109375 -24.171875 L 20.203125 -24.171875 L 20.203125 -10.765625 Z M 51.734375 -10.765625 "/></g></g></g><g fill="#fb1212" fill-opacity="1"><g transform="translate(249.781975, 215.639667)"><g><path d="M 59.609375 0 L 59.515625 -34.765625 L 42.46875 -6.125 L 36.421875 -6.125 L 19.453125 -34.015625 L 19.453125 0 L 6.875 0 L 6.875 -57.953125 L 17.96875 -57.953125 L 39.65625 -21.9375 L 61.015625 -57.953125 L 72.015625 -57.953125 L 72.1875 0 Z M 59.609375 0 "/></g></g></g></svg>